<?xml version="1.0" encoding="utf-8"?>
<!-- Generator: Adobe Illustrator 25.0.1, SVG Export Plug-In . SVG Version: 6.00 Build 0)  -->
<svg version="1.1" id="Warstwa_1" xmlns="http://www.w3.org/2000/svg" xmlns:xlink="http://www.w3.org/1999/xlink" x="0px" y="0px"
	 viewBox="0 0 150.2 104.9" style="enable-background:new 0 0 150.2 104.9;" xml:space="preserve">
<style type="text/css">
	.st0{fill:#FFFFFF;}
</style>
<g>
	<path class="st0" d="M89.5,49.6H61.2L47,25.1L61.2,0.5h28.3l14.2,24.5L89.5,49.6z M63.8,45.1h23.1l11.6-20L86.9,5H63.8l-11.6,20
		L63.8,45.1z"/>
	<path class="st0" d="M89.5,104.4H61.2L47,79.8l14.2-24.5h28.3l14.2,24.5L89.5,104.4z M63.8,99.8h23.1l11.6-20l-11.6-20H63.8
		l-11.6,20L63.8,99.8z"/>
	<polygon class="st0" points="136,27.9 107.7,27.9 93.5,52.4 107.7,77 136,77 150.2,52.4 	"/>
	<polygon class="st0" points="42.6,27.9 14.2,27.9 0,52.4 14.2,77 42.6,77 56.7,52.4 	"/>
</g>
</svg>
